# xmcd CD database file
#
# Track frame offsets:
#	150
#	15951
#	38037
#	68334
#	85251
#	112074
#	132928
#	162728
#	183917
#	213362
#
# Disc length: 3121 seconds
#
# Revision: 0
# Processed by: cddbd v1.5.2PL0 Copyright (c) Steve Scherf et al.
# Submitted via: CDex 1.51
#
DISCID=7d0c2f0a
DTITLE=Verschiedene - Lo Máximo De La Salsa 2
DYEAR=1900
DGENRE=Salsa
TTITLE0=Cheche Cole - Willie Colón
TTITLE1=El Preso - Alvaro Velázquez
TTITLE2=Gitana - Manzanita
TTITLE3=Llorarás - Oscar de León
TTITLE4=Del Puente Pa'lla  - Jairo Varela
TTITLE5=Rebelión - Jose Arroyo
TTITLE6=Periódico de Ayer - T. C. Alonso
TTITLE7=Anacaona - T. C. Alonso
TTITLE8=Plástica - Ruben Blades
TTITLE9=No Hay Cama Pa' Tanta Gente - F. Morales
EXTD=
EXTT0=
EXTT1=
EXTT2=
EXTT3=
EXTT4=
EXTT5=
EXTT6=
EXTT7=
EXTT8=
EXTT9=
PLAYORDER=
